<svg xmlns="http://www.w3.org/2000/svg" xmlns:xlink="http://www.w3.org/1999/xlink" viewBox="0 0 138.96 138.96">
    <defs>
        <clipPath id="A">
            <path d="M0,69.48C0,17.37,17.37,0,69.48,0s69.48,17.37,69.48,69.48-17.37,69.48-69.48,69.48S0,121.59,0,69.48"
                  fill="none"/>
        </clipPath>
        <path id="B"
              d="M88.98,63.68c.51,.97,.64,2.22,.06,3.14-.44,.7-1.28,1.13-2.1,1.1s-1.62-.55-2-1.28c-.48-.93-.29-2.07,.07-3.05,1.04-2.85,2.7-2.35,3.97,.09Z"/>
    </defs>
    <path d="M0,69.48C0,17.37,17.37,0,69.48,0s69.48,17.37,69.48,69.48-17.37,69.48-69.48,69.48S0,121.59,0,69.48"
          fill="#ff8300"/>
    <g clip-path="url(#A)">
        <path
            d="M25.13 128.38c-1.06-.98-1.97-2.13-2.83-3.29C10.84 109.73 4.94 90.31 5.91 71.17c.27-5.32 1.14-10.85 4.24-15.19 1.95-2.73 5.35-4.98 8.53-3.9 1.44.48 2.58 1.57 3.61 2.68A43.68 43.68 0 0 1 32.4 72.73c.13.47.35.92.51 1.39"
            fill="#fff"/>
        <path
            d="M25.13 129.03a.62.62 0 0 1-.44-.18c-1.13-1.05-2.11-2.3-2.91-3.37C10.31 110.1 4.29 90.3 5.26 71.14c.24-4.72.95-10.76 4.36-15.53 2.08-2.92 5.76-5.33 9.27-4.14 1.57.53 2.79 1.68 3.88 2.85 4.81 5.15 8.36 11.45 10.26 18.24.07.25.17.49.27.76a14.74 14.74 0 0 1 .23.6c.12.34-.07.71-.41.83s-.71-.07-.83-.41c-.06-.18-.13-.36-.2-.53-.11-.28-.23-.58-.32-.89-1.85-6.58-5.29-12.7-9.96-17.7-.98-1.04-2.06-2.07-3.35-2.51-2.88-.97-5.99 1.14-7.79 3.67-3.21 4.5-3.89 10.29-4.12 14.84-.96 18.86 4.97 38.36 16.26 53.5.77 1.03 1.7 2.22 2.75 3.2a.65.65 0 0 1 .03.92c-.13.14-.3.21-.48.21z"/>
        <g fill="#fff">
            <path
                d="M28.83 77.37l14.15-3.68 96.49 9.29 15.28 5.47 11.32 16.21 15.46 52.4-1.21 3.55h-33.56l-125.1-54.57 7.17-28.67z"/>
            <path
                d="M147.21 88.45c-1.79-15.14-1.85-16.22-6.09-30.86s-11.07-28.81-21.74-39.7c-4.11-4.2-7.21-6.08-10.13-7.36-6.12-2.68-11.87-2.59-16.73-2.52-1.79.03-7.22.19-12.82 1.62-16.47 4.2-27.12 17.47-29.05 19.95-7.06 9.08-9.84 18.75-15.41 38.1a244.93 244.93 0 0 0-2.89 11.04"/>
        </g>
        <path
            d="M147.21 89.1a.65.65 0 0 1-.65-.58l-.14-1.22c-1.64-13.9-1.81-15.35-5.93-29.54-4.75-16.39-12.01-29.66-21.58-39.43-4.33-4.43-7.45-6.13-9.93-7.21-5.99-2.62-11.56-2.54-16.45-2.46-2.54.04-7.56.3-12.67 1.6-15.46 3.94-25.87 16.09-28.7 19.72-6.98 8.98-9.76 18.63-15.3 37.88-1.05 3.66-2.02 7.36-2.89 11.02a.64.64 0 0 1-1.26-.3 234.3 234.3 0 0 1 2.9-11.07C40.2 48.1 43 38.36 50.13 29.19 53.02 25.48 63.67 13.05 79.53 9 84.76 7.67 89.9 7.4 92.5 7.36c4.79-.07 10.75-.17 17 2.57 2.59 1.13 5.85 2.91 10.33 7.5 9.72 9.93 17.09 23.38 21.9 39.98 4.14 14.29 4.31 15.75 5.97 29.75l.14 1.22c.04.36-.21.68-.57.72h-.08z"/>
        <use xlink:href="#B"/>
        <path
            d="M87.03 68.22h-.11c-.94-.04-1.82-.61-2.25-1.44-.44-.86-.42-1.97.06-3.29.62-1.7 1.41-2.1 1.96-2.14.87-.06 1.78.72 2.55 2.19.49.93.75 2.32.04 3.44-.48.76-1.35 1.24-2.25 1.24zm-.25-6.28h-.05c-.54.04-1.05.66-1.45 1.75-.42 1.16-.45 2.1-.08 2.82.33.64 1.03 1.09 1.75 1.12a2.11 2.11 0 0 0 1.84-.96c.57-.91.34-2.07-.07-2.85-.63-1.2-1.33-1.88-1.93-1.88zm-18.14 1.74c.51.97.64 2.22.06 3.14-.44.7-1.28 1.13-2.1 1.1a2.43 2.43 0 0 1-2-1.28c-.48-.93-.29-2.07.07-3.05 1.04-2.85 2.7-2.35 3.97.09z"/>
        <path
            d="M66.7 68.22h-.11c-.94-.04-1.82-.61-2.25-1.44-.44-.86-.42-1.97.06-3.29.62-1.7 1.41-2.1 1.96-2.14.87-.06 1.78.72 2.55 2.19.49.93.75 2.32.04 3.44a2.71 2.71 0 0 1-2.25 1.24zm-.25-6.28h-.05c-.54.04-1.05.66-1.45 1.75-.42 1.16-.45 2.1-.08 2.82.33.64 1.03 1.09 1.75 1.12a2.11 2.11 0 0 0 1.84-.96c.57-.91.34-2.07-.07-2.85-.63-1.2-1.33-1.88-1.93-1.88z"/>
        <g fill="#f80">
            <path
                d="M84.43 76.68c-2.2-.5-4.48-.6-6.74-.68-8.79-.31-17.59-.24-26.37.19-5 .25-10.1.64-14.7 2.4s-8.69 5.14-9.78 9.5c-.38 1.5-.37 3.13.36 4.52 1.08 2.08 3.53 3.29 5.93 4.12 7.48 2.58 15.7 2.72 23.72 2.83 8.05.11 16.18.21 24.06-1.28 5.28-1 14.63-3.97 15.86-9.55 1.19-5.43-7.4-10.93-12.34-12.05zm16.43-47.41c-3.59 0-7.27-.98-10.73-2.87-2.64-1.44-4.46-3.14-5.45-5.07-3.49 1.36-7.42 1.61-11.02.59-3.08-.87-5.49-2.56-6.81-4.76-1.61-2.71-1.34-6.27.64-8.28.3-.3.78-.31 1.08 0 .3.3.31.78 0 1.08-1.51 1.53-1.69 4.3-.42 6.42 1.11 1.87 3.21 3.31 5.91 4.07 3.28.92 6.87.7 10.04-.54a6.78 6.78 0 0 1 .64-5.06c.74-1.28 1.86-2.15 3.16-2.45 1.29-.29 2.95.12 3.49 1.48.26.65.22 1.42-.12 2.23-.56 1.33-1.67 2.29-2.45 2.89a16.61 16.61 0 0 1-2.75 1.71c.86 1.62 2.46 3.08 4.78 4.35 3.55 1.94 7.35 2.85 10.98 2.65 3.91-.22 7.62-1.8 10.18-4.35a.764.764 0 1 1 1.08 1.08c-2.82 2.81-6.89 4.55-11.17 4.79a19.38 19.38 0 0 1-1.07.03zM88.74 13.84c-.17 0-.33.02-.49.05-1.13.26-1.81 1.08-2.17 1.72-.62 1.09-.83 2.46-.55 3.67a14.97 14.97 0 0 0 2.37-1.49c1.03-.79 1.65-1.51 1.97-2.27.1-.25.26-.71.11-1.07-.16-.41-.7-.61-1.25-.61z"/>
        </g>
        <path
            d="M29.05 98.4c-1.93 9.66-3.06 19.49-3.38 29.34-.39 11.95.47 24.15 4.74 35.32s12.28 21.29 23.23 26.12c6.75 2.98 14.22 3.83 21.56 4.48 18.78 1.67 37.9 2.21 56.28-1.95 18.39-4.16 36.14-13.44 47.53-28.46 1.06-1.4 1.8-3.07 2.27-4.76"
            fill="#fff"/>
        <path
            d="M99.9 195.56c-8.66 0-17.02-.57-24.76-1.26-7.58-.67-14.94-1.52-21.77-4.54-10.29-4.54-18.88-14.19-23.57-26.48-3.73-9.77-5.25-21.08-4.78-35.58.32-9.86 1.46-19.77 3.39-29.44.07-.35.41-.58.77-.51.35.07.58.41.51.77-1.92 9.61-3.05 19.44-3.37 29.23-.46 14.32 1.03 25.47 4.7 35.07 4.57 11.97 12.91 21.35 22.88 25.75 6.64 2.93 13.89 3.77 21.36 4.43 16.89 1.5 36.75 2.44 56.08-1.93 20.04-4.53 36.79-14.55 47.15-28.22.94-1.25 1.67-2.77 2.16-4.54.1-.35.46-.55.8-.45.35.1.55.46.45.8-.53 1.93-1.33 3.6-2.38 4.98-10.55 13.91-27.56 24.1-47.9 28.7-10.62 2.4-21.38 3.21-31.72 3.21z"/>
    </g>
</svg>